<svg width="26" height="26" viewBox="0 0 26 26" xmlns="https://www.w3.org/2000/svg">
<path d="m 9.4648438,8.2578125 c 0.1278092,0 0.2555812,0.04855 0.3535152,0.1464844 L 13,11.585938 16.181641,8.4042969 c 0.195868,-0.1958683 0.511162,-0.195869 0.707031,0 l 0.707031,0.7070312 c 0.195869,0.195869 0.195869,0.5111624 0,0.7070309 L 14.414062,13 l 3.181641,3.181641 c 0.195869,0.195869 0.195869,0.511162 0,0.707031 l -0.707031,0.707031 c -0.195869,0.195869 -0.511162,0.195869 -0.707031,0 L 13,14.414062 9.818359,17.595703 c -0.195868,0.195868 -0.5111619,0.195869 -0.7070309,0 L 8.4042969,16.888672 c -0.195869,-0.195869 -0.1958683,-0.511163 0,-0.707031 L 11.585938,13 8.4042969,9.818359 c -0.1958684,-0.1958684 -0.1958688,-0.5111621 0,-0.7070309 L 9.1113281,8.4042969 C 9.2092623,8.3063627 9.3370336,8.2578125 9.4648438,8.2578125 Z" style="opacity: 1; fill: #000000; fill-opacity: 1; stroke: none; stroke-width: 1; stroke-linecap: butt; stroke-linejoin: miter; stroke-miterlimit: 4; stroke-dasharray: none; stroke-dashoffset: 0; stroke-opacity: 1;" />
<path d="m 4.5,16.5 v -7 l 5,-5 h 7 l 5,5 v 7 l -5,5 h -7 z" style="fill: none; stroke: #000000; stroke-width: 1; stroke-linecap: butt; stroke-linejoin: round; stroke-dasharray: none; stroke-opacity: 1;" />
</svg>