<svg width="26" height="26" viewBox="0 0 26 26" xmlns="https://www.w3.org/2000/svg">
<path d="M 9.5 4 A 0.50005 0.50005 0 0 0 9.1464844 4.1464844 L 4.1464844 9.1464844 A 0.50005 0.50005 0 0 0 4 9.5 L 4 16.5 A 0.50005 0.50005 0 0 0 4.1464844 16.853516 L 9.1464844 21.853516 A 0.50005 0.50005 0 0 0 9.5 22 L 16.5 22 A 0.50005 0.50005 0 0 0 16.853516 21.853516 L 21.853516 16.853516 A 0.50005 0.50005 0 0 0 22 16.5 L 22 9.5 A 0.50005 0.50005 0 0 0 21.853516 9.1464844 L 16.853516 4.1464844 A 0.50005 0.50005 0 0 0 16.5 4 L 9.5 4 z M 9.4648438 8.2578125 C 9.5926528 8.2578125 9.7204255 8.3063626 9.8183594 8.4042969 L 13 11.585938 L 16.181641 8.4042969 C 16.377508 8.2084288 16.692803 8.2084281 16.888672 8.4042969 L 17.595703 9.1113281 C 17.791572 9.3071969 17.791572 9.6224911 17.595703 9.8183594 L 14.414062 13 L 17.595703 16.181641 C 17.791572 16.377509 17.791572 16.692803 17.595703 16.888672 L 16.888672 17.595703 C 16.692803 17.791572 16.377509 17.791572 16.181641 17.595703 L 13 14.414062 L 9.8183594 17.595703 C 9.6224916 17.791571 9.3071969 17.791572 9.1113281 17.595703 L 8.4042969 16.888672 C 8.2084281 16.692803 8.2084288 16.377508 8.4042969 16.181641 L 11.585938 13 L 8.4042969 9.8183594 C 8.2084287 9.6224912 8.2084283 9.3071967 8.4042969 9.1113281 L 9.1113281 8.4042969 C 9.2092622 8.3063628 9.3370337 8.2578125 9.4648438 8.2578125 z " style="fill: #000000; stroke: none; stroke-linejoin: round;" />
</svg>